M48
; DRILL file {KiCad 9.0.1} date 2025-05-29T19:22:54-0300
; FORMAT={-:-/ absolute / inch / decimal}
; #@! TF.CreationDate,2025-05-29T19:22:54-03:00
; #@! TF.GenerationSoftware,Kicad,Pcbnew,9.0.1
; #@! TF.FileFunction,Plated,1,2,PTH
FMAT,2
INCH
; #@! TA.AperFunction,Plated,PTH,ComponentDrill
T1C0.0197
; #@! TA.AperFunction,Plated,PTH,ComponentDrill
T2C0.0315
; #@! TA.AperFunction,Plated,PTH,ComponentDrill
T3C0.0394
; #@! TA.AperFunction,Plated,PTH,ComponentDrill
T4C0.0598
%
G90
G05
T1
X5.8618Y-3.3945
X5.8618Y-3.5126
X6.7307Y-3.1894
X6.8094Y-3.1894
X6.8484Y-3.0028
X6.9862Y-3.0028
T2
X5.5154Y-2.7583
X5.6441Y-3.115
X5.8154Y-2.7583
X5.9441Y-3.115
X6.0169Y-2.5134
X6.0169Y-2.6134
X6.0169Y-2.7134
X6.0169Y-2.8134
X6.0476Y-4.148
X6.2043Y-3.4646
X6.2043Y-3.7646
X6.2047Y-3.1571
X6.2047Y-3.3539
X6.3169Y-2.5134
X6.3169Y-2.6134
X6.3169Y-2.7134
X6.3169Y-2.8134
X6.3476Y-4.148
X6.6118Y-3.9862
X6.9079Y-2.3587
X6.9118Y-3.9862
X7.1201Y-2.6917
X7.1201Y-2.8886
X7.2079Y-2.3587
T3
X6.4417Y-3.4465
X6.4417Y-3.7465
X6.5417Y-3.4465
X6.5417Y-3.7465
X6.6417Y-3.7465
X6.6433Y-3.4465
X6.7417Y-3.4465
X6.7417Y-3.7465
T4
X5.6835Y-3.8492
X5.6835Y-4.0492
X6.7012Y-2.7701
X6.9012Y-2.7701
X7.1Y-3.4
X7.1Y-3.6
M30
