M48
; DRILL file {KiCad 9.0.2} date 2025-06-24T11:25:36-0300
; FORMAT={-:-/ absolute / metric / decimal}
; #@! TF.CreationDate,2025-06-24T11:25:36-03:00
; #@! TF.GenerationSoftware,Kicad,Pcbnew,9.0.2
; #@! TF.FileFunction,Plated,1,2,PTH
FMAT,2
METRIC
; #@! TA.AperFunction,Plated,PTH,ComponentDrill
T1C0.750
; #@! TA.AperFunction,Plated,PTH,ComponentDrill
T2C0.800
; #@! TA.AperFunction,Plated,PTH,ComponentDrill
T3C1.100
; #@! TA.AperFunction,Plated,PTH,ComponentDrill
T4C1.400
; #@! TA.AperFunction,Plated,PTH,ComponentDrill
T5C1.500
; #@! TA.AperFunction,Plated,PTH,ComponentDrill
T6C1.520
%
G90
G05
T1
X122.75Y-65.23
X122.75Y-66.5
X122.75Y-67.77
X165.75Y-85.75
X167.98Y-85.75
X170.25Y-85.75
T2
X78.83Y-99.41
X78.83Y-107.03
X82.5Y-103.75
X82.98Y-95.84
X83.0Y-83.43
X83.0Y-91.05
X83.1Y-74.85
X84.25Y-79.25
X85.54Y-83.43
X85.54Y-91.05
X88.08Y-83.43
X88.08Y-91.05
X90.6Y-74.85
X90.6Y-95.84
X90.62Y-83.43
X90.62Y-91.05
X92.5Y-103.75
X94.25Y-79.25
X98.28Y-100.07
X101.25Y-83.54
X101.25Y-91.16
X105.0Y-96.75
X105.78Y-100.07
X106.19Y-102.75
X107.85Y-83.46
X107.85Y-91.08
X108.04Y-75.34
X110.39Y-83.46
X110.39Y-91.08
X112.93Y-83.46
X112.93Y-91.08
X113.81Y-102.75
X115.0Y-96.75
X115.19Y-71.75
X115.47Y-83.46
X115.47Y-91.08
X115.66Y-75.34
X120.5Y-79.87
X120.5Y-93.87
X122.81Y-71.75
X125.63Y-78.38
X125.63Y-86.0
X128.17Y-78.38
X128.17Y-86.0
X130.63Y-70.5
X130.69Y-66.25
X130.69Y-74.0
X130.71Y-78.38
X130.71Y-86.0
X133.25Y-78.38
X133.25Y-86.0
X138.25Y-70.5
X138.31Y-66.25
X138.31Y-74.0
X139.63Y-83.5
X139.63Y-86.04
X139.63Y-88.58
X139.63Y-91.12
X142.0Y-70.75
X142.0Y-78.25
X142.25Y-95.92
X142.25Y-106.08
X146.25Y-65.0
X146.25Y-72.5
X146.75Y-96.94
X146.75Y-104.56
X147.25Y-83.5
X147.25Y-86.04
X147.25Y-88.58
X147.25Y-91.12
X148.19Y-61.75
X150.0Y-70.75
X150.0Y-78.25
X153.25Y-87.75
X153.25Y-95.25
X155.81Y-61.75
X156.0Y-65.19
X156.0Y-72.81
X161.25Y-69.25
X161.25Y-73.75
X163.19Y-80.25
X166.75Y-98.25
X168.75Y-69.25
X168.75Y-73.75
X169.25Y-98.25
X170.81Y-80.25
X175.0Y-78.07
X175.0Y-85.69
T3
X138.178Y-111.5
X140.409Y-111.578
X142.75Y-111.5
X148.25Y-111.75
X150.57Y-111.706
X152.822Y-111.75
T4
X132.5Y-106.99
X132.5Y-112.07
X154.24Y-83.0
X158.75Y-105.74
X158.75Y-110.82
X159.32Y-83.0
T5
X182.5Y-76.0
X182.5Y-81.0
X182.5Y-86.0
X182.5Y-91.0
X182.5Y-96.0
X207.5Y-76.0
X207.5Y-81.0
X207.5Y-86.0
X207.5Y-91.0
X207.5Y-96.0
T6
X160.75Y-62.25
X165.83Y-62.25
X167.96Y-111.0
X173.04Y-111.0
M30
